PathFileType	3	(X/Y/Z)	D:\minhoCalibration\240510\subject5_KPNP\preferred\preferred15.trc
DataRate	CameraRate	NumFrames	NumMarkers	Units	OrigDataRate	OrigDataStartFrame	OrigNumFrames
200.0	200.0	15	10	mm	200.0	215	136	
Frame#	Time	Left_Ankle_Outer1			Left_Ankle_Inner1			Left_Knee_Outer1			Left_Knee_Inner1			Left_Wrist1			Right_Wrist1			Right_Knee_Inner1			Right_Knee_Outer1			Right_Ankle_Inner1			Right_Ankle_Outer1			
		X1	Y1	Z1	X2	Y2	Z2	X3	Y3	Z3	X4	Y4	Z4	X5	Y5	Z5	X6	Y6	Z6	X7	Y7	Z7	X8	Y8	Z8	X9	Y9	Z9	X10	Y10	Z10	
215	1.065	144.74664	70.721634	-597.81036	97.012375	85.061493	-609.38605	204.69966	524.96674	-447.47696	114.31627	514.06268	-471.98987	331.22522	989.0451	-596.0849	45.593651	1059.2816	-754.95355	-201.07568	588.9635	-602.66284	-246.01776	651.62213	-659.62048	41.146854	335.9613	-904.02161	16.274214	411.17715	-960.6087
216	1.07	144.92821	70.826035	-597.92859	97.154976	85.291901	-609.30725	207.23799	524.76532	-448.2359	116.64847	514.15173	-471.69159	332.54819	989.58911	-596.00635	43.594315	1063.6171	-747.37457	-207.00502	599.00092	-584.1864	-252.96721	662.36981	-639.91229	27.014456	345.23065	-891.55621	1.1082181	420.72507	-947.22778
217	1.075	145.02887	70.843948	-598.06274	96.780197	85.114594	-608.90594	209.78156	524.5498	-449.18616	118.66759	514.21802	-470.89441	333.6116	989.76282	-596.50989	41.830803	1067.8373	-740.03015	-212.3244	609.29102	-565.68707	-259.26337	672.97174	-620.16089	12.717737	355.05182	-879.09192	-14.086535	430.74536	-933.76996
218	1.08	145.18082	71.006012	-598.20355	96.922348	85.129433	-608.98279	212.40363	524.39307	-450.23029	121.04565	514.26428	-470.44907	335.45251	990.67383	-596.12115	39.963211	1072.1583	-732.7702	-217.49315	619.84906	-546.76495	-264.51385	684.36188	-601.24963	-1.0420492	365.18195	-866.36285	-29.279638	441.15649	-920.09576
219	1.085	145.10951	71.140053	-598.39746	96.700645	85.584564	-608.63916	214.97131	524.29889	-451.42899	123.08866	514.35358	-469.65891	336.42767	990.76038	-597.11536	38.166794	1076.5326	-725.55023	-222.23059	630.49884	-527.88947	-268.99393	695.4541	-580.72015	-14.984285	375.64658	-853.51337	-44.329472	451.94812	-906.1629
220	1.09	145.01854	71.232529	-598.60852	96.409058	85.885437	-608.16858	217.41379	524.20422	-452.52319	125.38178	514.2749	-469.577	337.39008	990.82269	-598.14093	36.479206	1080.6923	-719.15839	-226.62526	641.38416	-508.85809	-273.77185	707.30841	-560.05988	-29.104721	386.37857	-840.60162	-58.923851	463.44318	-892.31818
221	1.095	144.89511	71.347878	-598.83752	96.212006	86.115044	-607.93066	219.83798	524.12793	-453.73978	127.2237	514.42389	-468.90961	338.26337	990.76459	-599.47498	35.785046	1083.7435	-708.56482	-230.15941	652.52979	-490.13458	-277.75409	719.23254	-539.98718	-43.00605	397.4437	-827.75317	-73.386986	475.23526	-878.23254
222	1.1	144.72789	71.487823	-599.09662	96.17868	86.440407	-608.20453	222.18726	524.04236	-454.99786	129.02736	514.69165	-467.37607	339.10248	990.53345	-601.11108	34.779678	1087.0751	-698.97241	-233.16083	663.57983	-471.29379	-280.86371	731.48981	-519.93402	-56.95126	409.0625	-814.67542	-87.490776	487.62274	-864.1944
223	1.105	144.38533	71.638824	-599.33264	95.844482	86.639488	-607.99243	224.52417	524.0434	-456.28091	131.02867	514.85187	-467.09494	339.69275	990.12195	-603.07874	33.848328	1092.2773	-690.3222	-235.51045	674.99847	-452.375	-283.38132	743.86011	-499.98849	-70.521561	421.11755	-801.81512	-101.47902	500.4751	-850.15192
224	1.11	143.92088	71.811165	-599.61865	95.494446	86.86676	-607.64288	226.76373	524.06097	-457.63745	133.02422	515.02374	-466.50095	340.20056	989.61383	-605.31158	32.689396	1095.9907	-681.12836	-237.45863	686.54657	-433.10342	-284.95059	756.76776	-479.79715	-83.955353	433.79355	-789.1344	-115.27349	513.78558	-836.12225
225	1.115	143.40712	71.96981	-599.8147	94.983963	87.157623	-607.38867	228.93794	523.9361	-458.82407	134.48932	515.25256	-465.21326	340.50891	989.02716	-607.84088	31.425777	1100.694	-676.3255	-238.34846	698.01813	-415.20795	-286.30777	769.39954	-459.39764	-97.245644	446.91708	-776.55347	-128.88603	527.65356	-822.25165
226	1.12	143.05215	72.204819	-600.10828	94.316673	87.500031	-607.11456	231.08633	523.91431	-460.1767	136.33731	515.49561	-464.28705	340.50015	988.26892	-610.59998	30.855021	1104.8882	-667.35059	-239.18205	709.78235	-396.54315	-286.79242	782.40112	-439.27695	-110.42677	460.56857	-764.18176	-142.48338	542.03467	-808.37897
227	1.125	142.35886	72.396851	-600.45166	93.498276	87.809631	-606.41876	233.13171	523.83618	-461.53818	138.38928	515.67206	-463.40002	340.14999	987.35638	-613.61884	30.604336	1109.6982	-659.9978	-239.01872	721.54962	-377.42462	-286.11871	795.58405	-419.81546	-123.71276	474.55731	-751.84509	-156.01651	556.86761	-794.44147
228	1.13	141.53653	72.484764	-600.72778	92.68502	88.20829	-606.33752	234.95253	523.77509	-462.85641	141.1248	515.89386	-462.75381	339.59555	986.35492	-616.89111	30.662943	1114.0924	-651.03845	-238.52231	733.38763	-359.91382	-285.31128	808.58752	-399.53046	-137.17531	488.83884	-739.58722	-169.4528	572.04883	-780.33911
229	1.135	140.6736	72.682159	-601.04108	91.870964	88.512161	-606.10583	236.57886	523.66522	-464.0947	142.63808	515.77991	-461.70325	338.4899	985.00494	-620.47113	31.106264	1118.7596	-641.17303	-236.85347	745.0564	-342.22177	-283.05487	821.43823	-380.40082	-150.79688	503.5733	-727.48413	-182.62448	587.91382	-766.7359
